<mxfile host="app.diagrams.net" modified="2023-10-21T06:07:13.067Z" agent="Mozilla/5.0 (Macintosh; Intel Mac OS X 10_15_7) AppleWebKit/537.36 (KHTML, like Gecko) Chrome/118.0.0.0 Safari/537.36" version="22.0.6" etag="kNQTdQ6O2pvujU3T7Plr" type="github">
  <diagram name="第 1 页" id="GI9qFNL5p31Wyar3098E">
    <mxGraphModel>
      <root>
        <mxCell id="0" />
        <mxCell id="1" parent="0" />
      </root>
    </mxGraphModel>
  </diagram>
</mxfile>
